<svg xmlns="http://www.w3.org/2000/svg" viewBox="0 0 690 180" role="img" aria-label="Karaaslan Labs Reversed Lockup on Primary Dark">
<rect width="690" height="180" rx="0" fill="#0B121D"/>
<g transform="translate(18 23) scale(1.05)"><polygon points="24,26 50,10 61,20 43,31 43,81 62,93 58,112 24,92" fill="#FFFFFF"/>
<polygon points="61,28 74,20 73,68 98,52 111,60 72,84 60,76" fill="#FFFFFF"/>
<polygon points="76,84 96,96 111,88 111,105 95,114 69,98" fill="#FFFFFF"/></g><line x1="176" y1="28" x2="176" y2="152" stroke="#64748B" stroke-width="2"/><g transform="translate(210 27) scale(1.02)"><path d="M 3.5595703,60 H 11.601563 V 48.767578 L 16.822266,43.019531 27.975586,60 h 9.518555 L 22.385742,37.719727 37.072266,20.712891 h -9.834961 l -9.624024,11.285156 c -2.610351,3.164062 -4.429687,5.642578 -6.143554,8.384765 l 0.131836,-8.938476 V 20.712891 H 3.5595703 Z M 50.44043,60.580078 c 4.350586,0 7.198242,-1.924805 8.62207,-4.666992 h 0.263672 V 60 h 7.488281 V 40.145508 c 0,-7.145508 -6.169922,-9.993164 -12.498047,-9.993164 -6.591797,0 -11.33789,2.926758 -12.84082,8.041992 l 7.250976,1.212891 c 0.632813,-1.898438 2.504883,-3.401368 5.563477,-3.401368 2.953125,0 4.614258,1.423828 4.614258,3.928711 v 0.131836 c 0,1.924805 -2.083008,2.135742 -7.145508,2.636719 -5.800781,0.553711 -11.126953,2.452148 -11.126953,9.043945 0,5.827149 4.192383,8.833008 9.808594,8.833008 z m 2.241211,-5.563476 c -2.610352,0 -4.456055,-1.186524 -4.456055,-3.480469 0,-2.373047 1.951172,-3.506836 4.87793,-3.928711 1.740234,-0.237305 4.877929,-0.65918 5.853515,-1.344727 v 3.19043 c 0,3.111328 -2.583984,5.563477 -6.27539,5.563477 z M 73.564453,60 h 7.910156 V 43.230469 c 0,-3.665039 2.663086,-6.169922 6.301758,-6.169922 1.160156,0 2.71582,0.18457 3.427735,0.395508 v -7.066407 c -0.711915,-0.158203 -1.740235,-0.263671 -2.557618,-0.263671 -3.322265,0 -6.038086,1.898437 -7.11914,5.537109 h -0.316407 v -5.141602 h -7.646484 z m 29.478517,0.580078 c 4.35058,0 7.19824,-1.924805 8.62207,-4.666992 h 0.26367 V 60 h 7.48828 V 40.145508 c 0,-7.145508 -6.16992,-9.993164 -12.49804,-9.993164 -6.5918,0 -11.337895,2.926758 -12.840825,8.041992 l 7.250975,1.212891 c 0.63281,-1.898438 2.50488,-3.401368 5.56348,-3.401368 2.95312,0 4.61426,1.423828 4.61426,3.928711 v 0.131836 c 0,1.924805 -2.08301,2.135742 -7.14551,2.636719 -5.800783,0.553711 -11.126955,2.452148 -11.126955,9.043945 0,5.827149 4.192383,8.833008 9.808595,8.833008 z m 2.24121,-5.563476 c -2.61035,0 -4.45605,-1.186524 -4.45605,-3.480469 0,-2.373047 1.95117,-3.506836 4.87792,-3.928711 1.74024,-0.237305 4.87793,-0.65918 5.85352,-1.344727 v 3.19043 c 0,3.111328 -2.58398,5.563477 -6.27539,5.563477 z m 29.10937,5.563476 c 4.35059,0 7.19825,-1.924805 8.62207,-4.666992 h 0.26368 V 60 h 7.48828 V 40.145508 c 0,-7.145508 -6.16992,-9.993164 -12.49805,-9.993164 -6.5918,0 -11.33789,2.926758 -12.84082,8.041992 l 7.25098,1.212891 c 0.63281,-1.898438 2.50488,-3.401368 5.56347,-3.401368 2.95313,0 4.61426,1.423828 4.61426,3.928711 v 0.131836 c 0,1.924805 -2.08301,2.135742 -7.14551,2.636719 -5.80078,0.553711 -11.12695,2.452148 -11.12695,9.043945 0,5.827149 4.19238,8.833008 9.80859,8.833008 z m 2.24122,-5.563476 c -2.61036,0 -4.45606,-1.186524 -4.45606,-3.480469 0,-2.373047 1.95117,-3.506836 4.87793,-3.928711 1.74023,-0.237305 4.87793,-0.65918 5.85352,-1.344727 v 3.19043 c 0,3.111328 -2.58399,5.563477 -6.27539,5.563477 z m 32.58984,5.563476 c 7.72559,0 13.18359,-3.875976 13.18359,-9.676758 0,-4.192383 -2.74218,-6.802734 -8.4375,-7.96289 l -5.2998,-1.054688 c -2.79492,-0.580078 -3.79688,-1.608398 -3.79688,-3.084961 0,-1.766601 2.00391,-2.979492 4.58789,-2.979492 2.87403,0 4.53516,1.423828 5.16797,3.427734 l 7.01367,-1.239257 c -1.10742,-4.798829 -5.2998,-7.857422 -12.2871,-7.857422 -7.46192,0 -12.39258,3.480468 -12.39258,9.149414 0,4.40332 2.79492,7.198242 8.49023,8.358398 l 5.08887,1.054688 c 2.58398,0.527343 3.79687,1.476562 3.79687,3.032226 0,1.766602 -1.87207,3.032227 -4.87793,3.032227 -3.24316,0 -5.1416,-1.344727 -5.90625,-4.113281 l -7.35644,1.265625 c 1.02832,5.484375 5.90625,8.648437 13.02539,8.648437 z M 195.6709,20.712891 h -7.91016 V 60 h 7.91016 z m 14.95019,39.867187 c 4.35059,0 7.19825,-1.924805 8.62207,-4.666992 h 0.26368 V 60 h 7.48828 V 40.145508 c 0,-7.145508 -6.16992,-9.993164 -12.49805,-9.993164 -6.5918,0 -11.33789,2.926758 -12.84082,8.041992 l 7.25098,1.212891 c 0.63281,-1.898438 2.50488,-3.401368 5.56347,-3.401368 2.95313,0 4.61426,1.423828 4.61426,3.928711 v 0.131836 c 0,1.924805 -2.08301,2.135742 -7.14551,2.636719 -5.80078,0.553711 -11.12695,2.452148 -11.12695,9.043945 0,5.827149 4.19238,8.833008 9.80859,8.833008 z m 2.24121,-5.563476 c -2.61035,0 -4.45605,-1.186524 -4.45605,-3.480469 0,-2.373047 1.95117,-3.506836 4.87793,-3.928711 1.74023,-0.237305 4.87793,-0.65918 5.85352,-1.344727 v 3.19043 c 0,3.111328 -2.58399,5.563477 -6.2754,5.563477 z M 241.65527,42.94043 c 0,-3.902344 2.34668,-6.169922 5.72168,-6.169922 3.32227,0 5.32617,2.188476 5.32617,5.853515 V 60 h 7.91016 V 41.25293 c 0,-6.908203 -4.00781,-11.100586 -10.125,-11.100586 -4.53516,0 -7.51465,2.346679 -9.17578,6.459961 l -0.10547,-6.090821 h -7.46191 V 60 h 7.91015 z" fill="#FFFFFF"/>
<path d="M 5.5820312,105 H 16.691406 v -2.96484 H 9.15625 V 87.539062 H 5.5820312 Z m 28.5624998,0 h 3.949219 l 1.300781,-4.05469 H 45.59375 L 46.941406,105 h 3.972656 L 44.796875,87.539062 h -4.6875 z m 6.140625,-6.855469 0.503906,-1.570312 c 0.527344,-1.757813 1.042969,-3.832032 1.628907,-6.234375 0.609375,2.378906 1.160156,4.441406 1.722656,6.234375 l 0.527344,1.570312 z M 69.070312,105 h 7.371094 c 3.9375,0 6,-2.05078 6,-4.81641 0,-2.58984 -1.851562,-4.136715 -3.820312,-4.230465 v -0.175781 c 1.792968,-0.398438 3.140625,-1.675782 3.140625,-3.75 0,-2.613282 -1.933594,-4.488282 -5.765625,-4.488282 h -6.925782 z m 3.574219,-2.94141 v -4.734371 h 3.1875 c 1.792969,0 2.929688,1.054687 2.929688,2.519531 0,1.32422 -0.925782,2.21484 -3.023438,2.21484 z m 0,-7.18359 v -4.417969 h 2.894531 c 1.675782,0 2.601563,0.867188 2.601563,2.144531 0,1.40625 -1.136719,2.273438 -2.671875,2.273438 z m 34.703129,10.38281 c 4.24218,0 6.73828,-2.05078 6.73828,-5.22656 0,-2.929688 -2.27344,-4.429688 -5.21485,-5.109375 l -1.58203,-0.386719 C 105.8125,94.183594 104.5,93.632812 104.5,92.332031 c 0,-1.171875 1.03125,-2.015625 2.85938,-2.015625 1.79296,0 2.90625,0.808594 3.03515,2.203125 h 3.45703 c -0.0586,-3.070312 -2.58984,-5.214844 -6.45703,-5.214844 -3.79687,0 -6.5625,2.109375 -6.5625,5.261719 0,2.542969 1.76953,4.03125 4.72266,4.746094 l 1.92187,0.480469 c 1.89844,0.46875 3.01172,1.019531 3.01172,2.214841 0,1.32422 -1.26562,2.22657 -3.17578,2.22657 -1.93359,0 -3.35156,-0.87891 -3.46875,-2.648443 h -3.48047 c 0.10547,3.714843 2.78906,5.671873 6.98438,5.671873 z" fill="#2563EB"/></g>
</svg>
